<?xml version="1.0" standalone="no"?>
<!DOCTYPE svg PUBLIC "-//W3C//DTD SVG 20010904//EN"
 "http://www.w3.org/TR/2001/REC-SVG-20010904/DTD/svg10.dtd">
<svg version="1.0" xmlns="http://www.w3.org/2000/svg"
 width="493.200000pt" height="300.240000pt" viewBox="0 0 493.200000 300.240000"
 preserveAspectRatio="xMidYMid meet">
<metadata>
Created by potrace 1.16, written by Peter Selinger 2001-2019
</metadata>
<g transform="translate(0.000000,300.240000) scale(0.036000,-0.036000)"
fill="#1A1778" stroke="none">
<path d="M8509 7535 c-4 -3 -65 -11 -135 -16 -239 -19 -364 -37 -559 -79 -27
-6 -71 -13 -98 -17 -26 -3 -50 -10 -53 -14 -3 -5 -15 -9 -26 -9 -23 0 -81 -17
-110 -31 -10 -5 -29 -9 -42 -9 -14 0 -28 -4 -31 -10 -3 -5 -19 -10 -35 -10
-16 0 -32 -4 -35 -10 -3 -5 -17 -10 -30 -10 -13 0 -27 -4 -30 -10 -3 -5 -15
-10 -26 -10 -10 0 -27 -4 -37 -9 -19 -10 -67 -30 -97 -41 -30 -11 -78 -31 -97
-41 -10 -5 -25 -9 -33 -9 -8 0 -15 -4 -15 -10 0 -5 -7 -10 -15 -10 -8 0 -23
-4 -33 -9 -9 -5 -46 -22 -82 -39 -132 -60 -245 -117 -248 -124 -2 -5 -12 -8
-23 -8 -10 0 -19 -4 -19 -9 0 -5 -8 -11 -17 -14 -18 -6 -73 -37 -83 -47 -3 -3
-17 -11 -32 -19 -16 -8 -28 -18 -28 -23 0 -4 -5 -8 -11 -8 -11 0 -95 -55 -118
-78 -20 -20 -5 -27 27 -12 15 7 37 17 50 21 43 17 77 31 94 40 10 5 25 9 33 9
8 0 24 5 35 10 11 6 29 15 40 20 11 6 29 10 39 10 11 0 23 5 26 10 3 6 17 10
30 10 13 0 27 5 30 10 3 6 17 10 30 10 13 0 27 5 30 10 3 6 15 10 26 10 10 0
27 4 37 9 9 5 37 14 62 21 25 7 53 16 62 21 10 5 31 9 47 9 17 0 32 4 35 9 3
5 20 11 38 14 18 3 51 10 73 16 106 27 133 33 170 37 22 3 49 9 60 14 11 5 43
11 70 15 28 4 77 11 110 16 422 64 1096 74 1465 20 36 -5 97 -14 135 -20 39
-6 93 -15 120 -20 110 -22 162 -32 198 -38 20 -3 40 -9 43 -14 3 -5 20 -9 39
-9 19 0 37 -4 40 -10 3 -5 19 -10 35 -10 16 0 32 -4 35 -10 3 -5 17 -10 31
-10 13 0 32 -4 42 -9 9 -5 37 -14 62 -21 25 -7 53 -16 62 -21 10 -5 27 -9 37
-9 11 0 23 -4 26 -10 3 -5 17 -10 30 -10 13 0 27 -4 30 -10 3 -5 15 -10 26
-10 10 0 28 -4 39 -10 11 -5 29 -14 40 -20 11 -5 26 -10 33 -10 8 0 27 -6 43
-14 16 -8 47 -22 69 -31 54 -23 409 -198 415 -205 5 -5 73 -42 117 -64 13 -6
23 -14 23 -18 0 -5 6 -8 13 -8 6 0 28 -14 47 -30 19 -16 40 -30 47 -30 6 0 13
-4 15 -8 2 -5 32 -28 68 -52 36 -24 67 -46 70 -50 3 -3 21 -17 40 -30 19 -13
41 -30 48 -37 8 -7 30 -26 50 -41 21 -15 44 -34 52 -42 8 -8 35 -33 60 -54
139 -121 351 -340 432 -448 15 -20 34 -42 41 -50 7 -7 24 -29 37 -48 13 -19
27 -37 30 -40 3 -3 17 -21 30 -40 13 -19 30 -41 37 -48 7 -7 13 -17 13 -22 0
-5 6 -15 13 -22 11 -13 20 -27 51 -82 6 -11 19 -29 29 -40 9 -11 17 -23 17
-27 0 -4 18 -37 40 -73 22 -36 40 -70 40 -75 0 -5 3 -11 8 -13 10 -4 132 -255
162 -333 5 -11 13 -36 20 -55 15 -42 29 -79 41 -102 5 -10 9 -26 9 -36 0 -10
4 -22 8 -28 5 -5 14 -29 21 -54 7 -25 17 -54 21 -65 4 -11 13 -40 20 -65 7
-25 16 -55 21 -68 5 -13 9 -34 9 -47 0 -13 4 -26 9 -29 5 -3 11 -20 14 -38 4
-18 9 -49 12 -68 4 -19 10 -44 15 -55 5 -11 11 -40 15 -65 4 -25 11 -72 16
-105 66 -436 71 -749 19 -1110 -5 -38 -13 -94 -16 -123 -4 -29 -10 -55 -15
-58 -5 -3 -9 -23 -9 -44 0 -21 -4 -41 -9 -44 -5 -3 -11 -23 -15 -43 -13 -88
-19 -113 -27 -119 -5 -3 -9 -18 -9 -34 0 -16 -4 -32 -10 -35 -5 -3 -10 -17
-10 -31 0 -13 -4 -32 -9 -42 -5 -9 -15 -37 -22 -62 -7 -25 -16 -49 -21 -54 -4
-6 -8 -20 -8 -32 0 -13 -4 -26 -10 -29 -5 -3 -10 -15 -10 -26 0 -10 -4 -27 -9
-37 -12 -23 -52 -112 -61 -137 -25 -64 -150 -324 -177 -367 -19 -30 -12 -49 9
-27 7 8 35 43 61 79 27 36 54 72 60 80 7 8 23 31 37 50 13 19 30 41 37 48 6 6
15 21 18 32 3 11 11 20 16 20 5 0 9 5 9 11 0 6 13 29 28 52 16 23 32 49 35 57
4 8 20 38 36 65 41 68 143 277 172 353 5 12 13 32 18 45 14 37 33 81 42 99 5
10 9 27 9 37 0 11 5 23 10 26 6 3 10 17 10 30 0 13 5 27 10 30 6 3 10 17 10
31 0 13 4 32 9 42 5 9 14 37 21 62 6 25 16 59 21 76 5 17 9 42 9 55 0 14 4 29
9 35 5 5 12 29 15 54 3 25 10 72 16 105 68 375 68 863 0 1220 -22 116 -29 150
-40 200 -6 28 -13 64 -16 80 -3 17 -9 39 -14 50 -4 11 -13 40 -20 65 -28 101
-33 116 -41 132 -5 10 -9 27 -9 37 0 11 -4 23 -10 26 -5 3 -10 15 -10 26 0 10
-4 27 -9 37 -5 9 -13 28 -18 42 -6 14 -16 39 -23 55 -7 17 -17 41 -23 55 -5
14 -13 33 -18 42 -5 10 -9 25 -9 33 0 8 -4 15 -10 15 -5 0 -10 6 -10 13 0 15
-142 301 -152 305 -5 2 -8 8 -8 13 0 5 -17 37 -37 72 -21 34 -44 75 -52 90 -8
15 -18 27 -23 27 -4 0 -8 5 -8 11 0 10 -57 99 -70 109 -4 3 -26 34 -50 70 -24
36 -46 67 -50 70 -3 3 -17 21 -30 40 -13 19 -30 41 -37 48 -7 8 -26 30 -41 50
-15 21 -38 48 -52 62 -14 14 -46 50 -71 80 -66 78 -193 206 -269 270 -35 30
-74 65 -87 77 -12 12 -40 34 -60 50 -21 15 -40 30 -43 33 -3 3 -21 17 -40 30
-19 13 -42 32 -51 42 -9 10 -21 18 -26 18 -5 0 -18 8 -29 18 -22 21 -217 153
-267 181 -19 10 -45 25 -58 33 -13 7 -26 15 -29 18 -10 10 -131 72 -314 161
-32 16 -65 29 -72 29 -8 0 -14 5 -14 10 0 6 -7 10 -15 10 -8 0 -23 4 -33 9
-16 8 -36 17 -97 41 -14 6 -35 14 -47 19 -13 5 -52 19 -88 31 -36 12 -74 25
-85 30 -11 4 -40 13 -65 20 -25 7 -54 16 -65 20 -11 5 -31 11 -45 14 -14 3
-38 8 -55 11 -16 4 -39 10 -50 15 -11 5 -33 11 -50 14 -16 3 -52 10 -80 16
-188 41 -278 55 -505 80 -108 12 -722 25 -731 15z"/>
<path d="M8328 6775 c-3 -4 -57 -11 -120 -16 -104 -9 -160 -15 -306 -35 -29
-3 -55 -11 -58 -15 -3 -5 -23 -9 -44 -9 -21 0 -41 -4 -44 -9 -3 -5 -20 -11
-38 -14 -18 -3 -51 -10 -73 -16 -22 -5 -55 -14 -74 -18 -112 -27 44 -35 239
-12 178 21 589 -3 878 -51 34 -5 88 -14 120 -19 31 -6 80 -15 107 -21 28 -6
67 -14 88 -17 20 -3 40 -9 43 -14 3 -5 17 -9 31 -9 27 0 84 -16 115 -31 10 -5
31 -9 47 -9 17 0 33 -4 36 -10 3 -5 17 -10 30 -10 13 0 27 -4 30 -10 3 -5 15
-10 26 -10 10 0 28 -4 39 -10 11 -5 29 -14 40 -20 11 -5 27 -10 35 -10 8 0 23
-4 33 -9 9 -5 28 -13 42 -19 14 -5 46 -19 72 -31 26 -12 52 -21 58 -21 6 0 19
-4 30 -10 11 -5 29 -14 40 -20 11 -5 27 -10 35 -10 8 0 15 -4 15 -10 0 -5 6
-10 13 -10 12 0 217 -99 227 -110 3 -3 15 -11 28 -17 12 -7 32 -19 45 -25 12
-7 24 -15 27 -18 3 -3 16 -11 29 -18 13 -8 39 -23 58 -33 47 -27 245 -160 261
-176 8 -7 30 -26 50 -41 21 -15 44 -34 52 -42 8 -8 33 -28 54 -45 51 -38 278
-264 336 -335 25 -30 48 -57 51 -60 4 -3 43 -54 87 -115 45 -60 91 -121 102
-135 11 -14 20 -30 20 -37 0 -6 4 -13 8 -15 10 -4 59 -75 101 -146 l30 -52
-29 -56 c-17 -31 -30 -62 -30 -70 0 -8 -4 -14 -10 -14 -5 0 -10 -6 -10 -14 0
-8 -8 -31 -19 -53 -10 -21 -28 -58 -39 -83 -11 -25 -34 -76 -51 -115 -18 -38
-36 -78 -41 -87 -6 -10 -10 -23 -10 -28 0 -6 -13 -39 -29 -73 -16 -34 -39 -86
-52 -114 -25 -59 -31 -63 -46 -30 -6 12 -44 90 -83 172 -127 264 -135 280
-142 283 -5 2 -8 9 -8 15 0 12 -179 378 -190 387 -3 3 -12 19 -20 35 -8 17
-23 42 -33 58 l-19 27 -176 -2 -177 -3 0 -960 0 -960 167 -3 166 -2 4 51 c1
29 3 310 3 626 0 315 2 573 5 573 3 0 11 -15 18 -32 8 -18 40 -87 72 -153 32
-66 69 -145 83 -175 14 -30 41 -91 61 -135 20 -44 46 -97 56 -118 11 -22 20
-45 20 -53 0 -8 5 -14 10 -14 6 0 10 -9 10 -20 0 -11 5 -20 10 -20 6 0 10 -9
10 -20 0 -11 5 -20 10 -20 6 0 10 -9 10 -20 0 -11 5 -20 10 -20 6 0 10 -6 10
-14 0 -16 39 -95 57 -113 20 -22 156 -17 178 7 21 23 65 109 65 127 0 7 5 13
10 13 6 0 10 6 10 13 0 8 6 27 14 43 8 16 22 47 31 69 9 22 26 60 37 85 11 25
24 54 28 65 7 19 17 41 55 130 8 19 22 51 30 70 37 86 48 111 56 133 5 12 13
32 18 45 5 12 18 43 30 69 12 26 21 55 21 63 0 8 4 15 10 15 6 0 11 -222 12
-632 l3 -633 175 0 175 0 3 700 c2 486 0 722 -8 773 -11 71 -16 82 -131 302
-13 25 -27 47 -31 48 -5 2 -8 12 -8 22 0 10 -3 20 -7 22 -10 4 -42 57 -50 81
-3 9 -9 17 -14 17 -5 0 -9 5 -9 10 0 10 -136 220 -150 230 -3 3 -17 21 -30 40
-13 19 -27 37 -30 40 -3 3 -17 21 -30 40 -14 19 -34 45 -47 57 -12 13 -34 39
-50 60 -83 109 -342 367 -433 430 -14 10 -35 27 -47 39 -12 13 -36 31 -53 40
-16 10 -30 22 -30 26 0 4 -6 8 -13 8 -7 0 -23 9 -34 20 -12 11 -57 42 -100 70
-43 27 -83 53 -88 57 -33 25 -365 190 -455 225 -14 6 -33 14 -42 19 -10 5 -25
9 -33 9 -8 0 -24 5 -35 10 -11 6 -29 15 -40 20 -11 6 -29 10 -39 10 -11 0 -23
5 -26 10 -3 6 -16 10 -29 10 -12 0 -26 4 -31 8 -10 8 -44 19 -125 42 -25 7
-55 16 -68 21 -13 5 -36 9 -52 9 -16 0 -32 5 -35 10 -3 6 -19 10 -35 10 -16 0
-32 5 -35 10 -3 6 -25 10 -49 10 -23 0 -46 4 -51 9 -6 5 -32 12 -60 15 -27 4
-81 11 -120 16 -38 6 -110 15 -160 21 -101 12 -667 24 -677 14z"/>
<path d="M3225 5090 c-11 -5 -34 -9 -52 -9 -17 -1 -35 -5 -38 -11 -3 -5 -17
-10 -31 -10 -13 0 -32 -4 -42 -9 -9 -5 -48 -24 -87 -42 -38 -19 -71 -37 -73
-41 -2 -5 -10 -8 -18 -8 -32 0 -224 -210 -241 -262 -3 -10 -9 -18 -14 -18 -5
0 -9 -7 -9 -15 0 -8 -9 -30 -20 -50 -11 -20 -20 -44 -20 -55 0 -10 -4 -22 -10
-25 -5 -3 -10 -17 -10 -30 0 -13 -4 -27 -10 -30 -5 -3 -10 -21 -10 -39 0 -17
-4 -36 -9 -41 -32 -34 -32 -561 0 -581 5 -3 9 -17 9 -31 0 -34 17 -89 55 -178
30 -70 63 -134 75 -145 3 -3 17 -21 30 -40 66 -94 198 -193 335 -250 17 -7 38
-16 47 -21 10 -5 28 -9 41 -9 13 0 27 -4 32 -9 34 -32 436 -32 470 0 5 5 19 9
31 9 13 0 26 5 29 10 3 6 15 10 26 10 10 0 27 4 37 9 9 5 31 15 47 22 86 39
275 189 275 220 0 3 11 19 25 35 14 16 25 34 25 41 0 6 3 13 8 15 7 3 66 120
82 163 4 11 13 33 19 48 6 15 11 38 11 50 0 13 4 27 9 32 33 35 33 590 0 611
-5 3 -9 18 -9 34 0 16 -4 32 -10 35 -5 3 -10 15 -10 26 0 10 -4 27 -9 37 -5 9
-13 28 -19 42 -22 57 -56 120 -64 120 -4 0 -8 6 -8 13 0 6 -11 25 -25 41 -14
16 -25 32 -25 36 0 11 -82 93 -125 125 -22 17 -46 36 -54 43 -7 7 -31 21 -52
30 -22 9 -39 20 -39 24 0 5 -7 8 -15 8 -8 0 -23 4 -33 9 -41 21 -89 37 -177
57 -46 11 -327 14 -350 4z m290 -344 c96 -23 223 -119 256 -194 8 -18 17 -32
21 -32 5 0 8 -7 8 -15 0 -8 4 -23 9 -33 27 -53 33 -74 54 -192 20 -112 10
-421 -14 -436 -5 -3 -9 -14 -9 -25 0 -27 -23 -99 -32 -99 -5 0 -8 -7 -8 -15 0
-14 -19 -54 -30 -65 -3 -3 -17 -21 -30 -40 -28 -40 -54 -65 -92 -88 -16 -9
-28 -20 -28 -24 0 -4 -9 -8 -20 -8 -11 0 -20 -4 -20 -10 0 -5 -13 -10 -29 -10
-17 0 -33 -4 -36 -10 -8 -13 -229 -13 -253 -1 -9 5 -39 19 -67 31 -96 42 -209
181 -244 300 -7 25 -17 56 -21 70 -33 100 -31 496 1 516 5 3 9 18 9 34 0 16 5
32 10 35 6 3 10 15 10 26 0 10 5 19 10 19 6 0 10 9 10 20 0 11 5 20 10 20 6 0
10 7 10 15 0 35 109 143 175 174 30 14 44 19 100 39 32 11 189 10 240 -2z"/>
<path d="M9110 5089 c-19 -6 -53 -15 -75 -21 -36 -9 -64 -22 -145 -64 -57 -30
-190 -179 -190 -213 0 -6 -4 -11 -10 -11 -5 0 -10 -9 -10 -19 0 -11 -4 -22 -9
-25 -24 -15 -40 -286 -21 -351 20 -67 48 -130 70 -160 20 -26 81 -86 106 -105
71 -52 216 -120 324 -151 25 -7 49 -16 54 -21 6 -4 18 -8 28 -8 10 0 26 -4 36
-9 9 -5 31 -15 47 -22 33 -15 113 -66 132 -85 44 -43 73 -171 43 -189 -5 -3
-10 -15 -10 -25 0 -22 -85 -110 -106 -110 -8 0 -14 -4 -14 -9 0 -23 -201 -39
-269 -21 -108 28 -232 85 -278 127 -38 34 -86 56 -93 42 -5 -8 -20 -27 -34
-44 -14 -16 -26 -35 -26 -42 0 -6 -4 -13 -8 -15 -12 -4 -72 -95 -72 -107 0 -6
-3 -11 -7 -11 -5 0 -13 -11 -19 -25 -11 -22 -8 -27 30 -58 84 -68 195 -137
221 -137 8 0 15 -4 15 -8 0 -4 21 -14 48 -21 26 -8 52 -17 57 -21 12 -9 50
-18 125 -31 117 -19 185 -20 280 -4 52 9 110 19 128 22 18 3 35 9 38 14 3 5
13 9 24 9 10 0 42 13 72 28 131 69 232 184 278 317 4 11 13 33 19 48 14 35 15
310 1 337 -5 11 -14 29 -20 40 -5 11 -10 25 -10 30 0 25 -84 131 -137 174 -51
40 -140 90 -210 117 -13 5 -35 14 -50 20 -16 7 -37 15 -48 19 -30 11 -78 31
-97 41 -10 5 -27 9 -38 9 -11 0 -20 5 -20 10 0 6 -6 10 -14 10 -62 0 -175 103
-194 175 -21 87 42 190 131 210 42 10 203 10 242 1 57 -14 200 -82 229 -108
11 -10 24 -18 29 -18 11 0 47 39 47 50 0 4 11 20 25 36 14 16 25 35 25 42 0 6
4 12 9 12 5 0 13 9 16 20 3 11 12 26 18 33 35 38 38 57 15 80 -51 51 -181 127
-268 157 -19 7 -44 16 -55 20 -58 24 -340 37 -405 19z"/>
<path d="M6505 5070 c-22 -5 -60 -9 -84 -9 -24 -1 -61 -6 -82 -13 l-39 -11 0
-948 0 -949 23 -5 c12 -3 96 -4 187 -3 l165 3 5 360 5 360 93 3 c104 3 104 3
141 -70 13 -27 28 -48 33 -48 4 0 8 -9 8 -19 0 -11 3 -21 8 -23 4 -1 17 -21
28 -43 12 -22 32 -60 45 -85 13 -25 27 -46 32 -48 4 -2 7 -12 7 -23 0 -10 3
-19 8 -19 4 0 12 -10 17 -23 15 -31 59 -111 65 -117 4 -4 18 -29 64 -115 6
-11 13 -22 16 -25 3 -3 11 -17 19 -32 11 -21 24 -29 58 -34 52 -8 380 -1 389
8 3 4 -8 27 -25 52 -17 24 -31 49 -31 55 0 6 -4 11 -9 11 -5 0 -11 8 -14 18
-6 17 -37 72 -47 82 -3 3 -14 23 -26 45 -27 52 -48 89 -54 95 -10 10 -41 65
-47 83 -3 9 -9 17 -14 17 -5 0 -9 9 -9 19 0 11 -4 21 -8 23 -5 2 -23 29 -40
61 -84 151 -97 173 -109 185 -19 19 -16 31 10 41 12 5 37 15 55 23 17 7 32 16
32 20 0 5 6 8 14 8 35 0 179 163 215 245 7 17 17 38 22 47 5 10 9 27 9 37 0
11 5 23 10 26 14 9 13 280 -1 324 -25 77 -53 141 -61 141 -5 0 -8 7 -8 14 0
19 -127 146 -146 146 -7 0 -14 3 -14 8 0 4 -15 13 -32 20 -18 8 -42 17 -53 22
-54 22 -110 38 -185 52 -68 13 -590 19 -645 8z m560 -341 c5 -5 17 -9 27 -9
38 0 148 -91 148 -123 0 -9 5 -19 10 -22 6 -3 10 -37 10 -74 0 -137 -81 -229
-235 -267 -16 -4 -101 -9 -187 -11 l-158 -4 0 260 0 260 43 4 c66 7 331 -4
342 -14z"/>
<path d="M982 4893 l3 -168 255 -2 c140 -2 261 -3 268 -3 9 0 12 -165 12 -790
l0 -790 190 0 190 0 0 790 0 790 270 0 270 0 0 170 0 170 -730 0 -730 0 2
-167z"/>
<path d="M4504 4413 c3 -624 7 -737 27 -758 5 -5 9 -21 9 -36 0 -15 5 -31 10
-34 6 -3 10 -14 10 -25 0 -16 27 -74 71 -150 41 -72 236 -230 284 -230 8 0 17
-4 20 -10 3 -5 16 -10 29 -10 12 0 26 -4 31 -9 35 -32 445 -32 480 0 5 5 17 9
27 9 10 0 26 4 36 9 9 5 40 19 67 32 28 13 52 27 53 32 2 4 10 7 18 7 38 0
193 179 241 280 73 152 75 175 80 898 l3 642 -187 -2 -188 -3 -6 -620 c-6
-596 -10 -699 -30 -720 -5 -5 -9 -19 -9 -32 0 -13 -4 -23 -10 -23 -5 0 -10 -9
-10 -20 0 -11 -4 -20 -10 -20 -5 0 -10 -6 -10 -13 0 -23 -64 -82 -115 -106
-27 -13 -58 -27 -67 -32 -23 -12 -193 -12 -216 0 -9 5 -31 14 -47 20 -69 26
-136 110 -180 226 -23 60 -28 181 -32 738 l-3 607 -190 0 -190 0 4 -647z"/>
<path d="M7940 4101 l0 -959 73 -7 c39 -3 124 -5 187 -3 l115 3 3 963 2 962
-190 0 -190 0 0 -959z"/>
<path d="M10530 2719 c-85 -5 -175 -12 -200 -16 l-45 -8 -3 -899 c-1 -494 1
-919 6 -945 l7 -46 190 0 190 0 3 358 2 357 86 0 c93 0 97 -2 130 -65 27 -52
48 -89 54 -95 3 -3 15 -24 28 -47 12 -24 32 -62 45 -85 12 -24 24 -45 27 -48
3 -3 15 -23 27 -45 24 -45 53 -98 85 -153 11 -20 31 -55 42 -77 12 -22 23 -42
26 -45 3 -3 11 -17 19 -33 l14 -27 203 0 c112 0 205 4 208 9 6 9 -85 192 -104
211 -6 6 -27 43 -54 95 -12 22 -23 42 -26 45 -3 3 -14 23 -26 45 -27 52 -48
89 -54 95 -3 3 -11 16 -18 29 -8 13 -22 39 -33 57 -10 19 -29 51 -40 71 -12
21 -35 57 -51 81 -29 42 -30 62 -3 62 13 0 125 57 135 69 3 3 22 19 43 35 44
32 119 130 143 185 9 20 20 44 25 53 5 10 9 30 9 46 0 15 5 33 11 39 11 11 7
209 -5 273 -21 106 -139 267 -232 316 -21 11 -48 25 -59 31 -47 25 -99 43
-155 55 -130 27 -340 32 -650 17z m372 -333 c81 -3 155 -9 165 -15 10 -5 31
-15 48 -22 90 -42 155 -191 116 -267 -5 -9 -15 -30 -22 -45 -24 -51 -113 -117
-158 -117 -9 0 -22 -5 -28 -11 -6 -6 -75 -11 -174 -12 l-164 -2 -3 240 c-1
132 0 245 2 252 3 7 18 10 38 8 18 -2 99 -6 180 -9z"/>
<path d="M955 2710 c-11 -5 -46 -9 -77 -9 l-58 -1 0 -950 0 -950 188 2 187 3
3 317 2 316 173 5 c94 3 197 10 227 16 30 6 72 13 93 17 20 3 40 10 43 15 3 5
13 9 24 9 16 0 78 29 150 71 36 21 170 159 170 175 0 8 5 14 10 14 6 0 10 9
10 20 0 11 5 20 10 20 6 0 10 9 10 19 0 11 5 23 10 26 6 3 10 19 10 34 0 15 5
32 11 38 16 16 17 308 2 348 -6 17 -17 50 -24 75 -7 25 -21 57 -31 72 -10 14
-18 29 -18 32 0 47 -219 216 -281 216 -10 0 -20 4 -23 9 -3 5 -18 11 -33 14
-16 4 -50 12 -78 18 -60 15 -679 22 -710 9z m570 -326 c28 -3 54 -10 60 -15 5
-5 18 -9 28 -9 29 0 147 -124 147 -154 0 -14 5 -28 10 -31 24 -15 3 -235 -22
-235 -5 0 -8 -6 -8 -14 0 -36 -110 -110 -195 -132 -16 -4 -101 -9 -187 -11
l-158 -4 0 311 0 312 138 -6 c75 -3 160 -8 187 -12z"/>
<path d="M4107 2714 c-3 -3 -41 -9 -84 -13 l-78 -6 0 -945 0 -945 189 0 189 0
4 350 c2 192 7 353 12 358 4 4 48 7 96 5 l88 -3 24 -40 c13 -22 26 -47 30 -55
4 -8 9 -17 12 -20 10 -8 40 -62 59 -102 9 -21 20 -38 24 -38 5 0 8 -9 8 -20 0
-11 3 -20 8 -20 4 0 23 -30 42 -67 19 -38 37 -70 40 -73 10 -10 41 -65 47 -82
3 -10 9 -18 14 -18 5 0 9 -9 9 -19 0 -11 4 -21 8 -23 4 -2 23 -33 42 -70 l33
-68 202 0 c111 0 204 3 208 6 5 6 -48 119 -63 134 -3 3 -15 23 -26 45 -12 22
-32 60 -45 85 -13 25 -27 47 -31 48 -5 2 -8 12 -8 23 0 10 -3 19 -7 19 -5 0
-13 10 -18 23 -17 35 -59 112 -66 117 -3 3 -16 25 -30 50 -13 25 -26 47 -29
50 -5 5 -10 13 -52 89 -11 20 -29 48 -39 63 -23 31 -24 48 -5 48 17 0 100 42
104 53 2 4 10 7 18 7 44 0 224 223 224 279 0 9 4 21 9 27 10 10 19 66 28 164
5 62 -9 156 -28 192 -5 10 -9 24 -9 31 0 18 -39 97 -56 115 -8 7 -14 17 -14
22 0 13 -102 110 -116 110 -7 0 -14 3 -16 8 -4 8 -79 45 -128 62 -19 7 -44 16
-55 20 -11 5 -38 12 -60 16 -52 9 -699 16 -708 8z m502 -325 c83 -11 104 -16
156 -41 37 -17 95 -73 95 -92 0 -9 5 -16 10 -16 6 0 10 -37 10 -90 0 -53 -4
-90 -10 -90 -5 0 -10 -7 -10 -15 0 -37 -82 -100 -175 -135 -68 -26 -322 -39
-343 -18 -13 13 -18 489 -5 501 10 11 179 8 272 -4z"/>
<path d="M6163 2703 l-723 -3 0 -160 0 -160 268 -2 c261 -3 267 -3 264 -23
-12 -67 -8 -1536 3 -1545 8 -7 80 -9 196 -8 l184 3 3 788 2 787 280 0 280 0
-2 162 c-3 137 -5 163 -18 163 -8 0 -340 -1 -737 -2z"/>
<path d="M8890 2700 l-45 -5 -3 -892 c-1 -490 1 -915 6 -945 l7 -53 580 0 580
0 0 165 0 165 -388 3 -387 2 2 243 3 242 345 2 345 1 3 166 2 166 -322 1
c-178 1 -334 2 -348 2 l-25 2 -3 207 -2 208 377 2 378 3 0 157 0 157 -530 3
c-291 2 -550 1 -575 -2z"/>
<path d="M2712 2688 c-7 -7 -12 -22 -12 -34 0 -13 -4 -26 -10 -29 -5 -3 -10
-16 -10 -29 0 -12 -4 -26 -8 -31 -5 -6 -14 -30 -21 -55 -7 -25 -17 -54 -21
-65 -5 -11 -14 -38 -21 -60 -6 -22 -15 -49 -20 -60 -4 -11 -13 -38 -20 -60 -6
-22 -15 -49 -20 -60 -4 -11 -13 -38 -20 -60 -6 -22 -15 -48 -20 -57 -5 -10 -9
-29 -9 -42 0 -14 -4 -28 -10 -31 -5 -3 -10 -15 -10 -26 0 -10 -4 -27 -9 -37
-5 -9 -19 -51 -31 -92 -12 -41 -26 -84 -31 -95 -4 -11 -13 -38 -20 -60 -6 -22
-15 -48 -20 -57 -5 -10 -9 -27 -9 -37 0 -11 -4 -23 -10 -26 -5 -3 -10 -15 -10
-26 0 -10 -4 -27 -9 -37 -5 -9 -14 -37 -21 -62 -7 -25 -16 -53 -21 -62 -5 -10
-9 -27 -9 -37 0 -11 -4 -23 -10 -26 -5 -3 -10 -17 -10 -30 0 -13 -4 -27 -10
-30 -5 -3 -10 -19 -10 -35 0 -16 -4 -32 -10 -35 -5 -3 -10 -15 -10 -26 0 -10
-4 -27 -9 -37 -5 -9 -14 -37 -21 -62 -7 -25 -16 -53 -21 -62 -5 -10 -9 -27 -9
-37 0 -11 -4 -22 -9 -25 -8 -6 -14 -31 -27 -118 l-6 -38 177 0 c192 0 204 3
205 57 0 12 5 25 10 28 6 3 10 17 10 30 0 13 5 27 10 30 6 3 10 19 10 35 0 16
5 32 10 35 6 3 10 17 10 30 0 13 5 27 10 30 6 3 10 17 10 30 0 13 5 27 10 30
6 3 10 19 10 34 0 16 6 33 13 39 10 9 462 18 610 13 12 -1 17 -9 17 -30 0 -17
5 -33 10 -36 6 -3 10 -15 10 -26 0 -10 4 -27 9 -37 5 -9 14 -37 21 -62 7 -25
16 -53 21 -62 5 -10 9 -25 9 -33 0 -8 4 -23 9 -33 5 -9 15 -36 22 -59 l12 -43
189 0 188 0 0 35 c0 34 -3 42 -28 92 -7 13 -12 32 -12 42 0 11 -4 23 -10 26
-5 3 -10 19 -10 35 0 16 -4 32 -10 35 -5 3 -10 15 -10 26 0 10 -4 27 -9 37 -5
9 -19 51 -31 92 -12 41 -26 83 -31 92 -5 10 -9 27 -9 37 0 11 -4 23 -10 26 -5
3 -10 17 -10 30 0 13 -4 27 -10 30 -5 3 -10 17 -10 30 0 13 -4 27 -10 30 -5 3
-10 19 -10 36 0 16 -4 29 -9 29 -5 0 -11 14 -15 30 -3 17 -9 44 -12 60 -4 17
-10 30 -15 30 -5 0 -9 8 -9 18 0 20 -23 89 -33 98 -4 4 -7 18 -7 30 0 13 -4
26 -10 29 -5 3 -10 17 -10 30 0 13 -4 27 -10 30 -5 3 -10 17 -10 30 0 13 -4
27 -10 30 -5 3 -10 19 -10 36 0 16 -4 29 -10 29 -5 0 -10 11 -10 25 0 13 -5
37 -11 52 -18 44 -25 65 -38 108 -7 22 -16 49 -21 60 -4 11 -14 40 -21 65 -7
25 -16 49 -21 55 -4 5 -8 19 -8 32 0 13 -4 32 -10 43 -5 11 -14 29 -20 40 -5
11 -10 31 -10 44 0 14 -4 28 -10 31 -5 3 -10 17 -10 30 0 13 -4 27 -10 30 -5
3 -10 15 -10 26 0 18 -9 19 -208 19 -148 0 -211 -3 -220 -12z m228 -432 c0
-14 5 -28 10 -31 6 -3 10 -21 10 -40 0 -19 5 -37 10 -40 6 -3 10 -19 10 -35 0
-16 5 -32 10 -35 6 -3 10 -19 10 -35 0 -16 5 -32 10 -35 6 -3 10 -19 10 -35 0
-16 5 -32 10 -35 6 -3 10 -21 10 -40 0 -19 5 -37 10 -40 6 -3 10 -19 10 -35 0
-16 5 -32 10 -35 6 -3 10 -17 10 -30 0 -13 5 -27 10 -30 6 -3 10 -17 10 -31 0
-13 4 -32 9 -42 15 -31 29 -81 23 -86 -3 -3 -97 -6 -209 -6 l-203 0 0 29 c0
17 5 33 10 36 6 3 10 21 10 40 0 19 5 37 10 40 6 3 10 17 10 30 0 13 5 27 10
30 6 3 10 17 10 31 0 13 4 32 9 42 5 9 14 37 21 62 7 25 16 53 21 62 5 10 9
29 9 42 0 14 5 28 10 31 6 3 10 19 10 35 0 16 5 32 10 35 6 3 10 19 10 35 0
16 5 32 10 35 6 3 10 17 10 30 0 28 20 75 32 75 4 0 8 -11 8 -24z"/>
<path d="M7062 1753 l3 -948 178 -3 177 -2 0 615 c0 338 4 615 8 615 8 0 22
-23 75 -122 12 -24 24 -45 27 -48 11 -10 110 -181 110 -189 0 -5 3 -11 8 -13
6 -3 71 -107 132 -213 10 -16 36 -60 59 -97 22 -37 41 -72 41 -78 0 -5 4 -10
9 -10 5 0 11 -8 14 -18 6 -17 37 -72 47 -82 3 -3 14 -23 26 -45 27 -52 48 -89
54 -95 10 -10 41 -65 47 -83 3 -9 9 -17 14 -17 5 0 9 -9 9 -20 0 -11 3 -20 8
-20 4 0 15 -18 25 -40 l17 -40 174 0 c132 0 176 3 185 13 7 10 11 283 11 950
l0 937 -180 0 -180 0 0 -610 c0 -335 -3 -610 -7 -610 -5 0 -20 26 -35 58 -28
57 -58 112 -68 122 -3 3 -11 15 -17 28 -7 12 -19 32 -25 45 -7 12 -15 24 -18
27 -4 4 -18 29 -64 115 -6 11 -13 22 -16 25 -3 3 -11 15 -17 28 -7 12 -19 32
-25 45 -7 12 -15 24 -18 27 -3 3 -11 15 -17 28 -7 12 -19 32 -25 45 -7 12 -15
24 -18 27 -6 6 -27 43 -54 95 -12 22 -23 42 -26 45 -7 6 -60 96 -79 133 -7 15
-17 27 -22 27 -5 0 -9 9 -9 20 0 11 -4 20 -10 20 -5 0 -10 4 -10 10 0 5 -14
33 -31 62 -18 29 -40 67 -50 85 -10 17 -28 47 -41 67 l-23 36 -188 0 -187 0 2
-947z"/>
</g>
</svg>
