<svg xmlns="http://www.w3.org/2000/svg" viewBox="0 0 64 64">
  <defs>
    <linearGradient id="bg" x1="8" y1="56" x2="56" y2="8" gradientUnits="userSpaceOnUse">
      <stop stop-color="#07092a"/>
      <stop offset="1" stop-color="#2744d6"/>
    </linearGradient>
  </defs>
  <rect width="64" height="64" rx="14" fill="url(#bg)"/>
  <path fill="#fff" d="M30 16c10-7 24-5 30 6 3 6 3 14 0 21 6-10 4-24-5-32-9-7-20-6-25 5Z"/>
  <path fill="#fff" d="M35 20c8-3 17 1 22 8 3 5 4 11 2 16 4-8 1-18-6-23-6-4-13-5-18-1Z"/>
  <text x="10" y="43" fill="#fff" font-family="Archivo, system-ui, sans-serif" font-size="24" font-weight="800">TP</text>
</svg>
