<svg xmlns="http://www.w3.org/2000/svg" viewBox="0 0 64 64" fill="none">
  <g stroke="#fff" stroke-width="2.7" stroke-linecap="round" stroke-linejoin="round">
    <path d="M32 5.5c10.1 0 18 7.1 18 16.4 0 11.2-8.8 20.5-18 20.5s-18-9.3-18-20.5C14 12.6 21.9 5.5 32 5.5Z"/>
    <path d="M23.5 8.7c-3.2 4.1-5.1 8.7-5.1 13.3 0 8.1 5.5 15.4 11.2 19.5"/>
    <path d="M40.5 8.7c3.2 4.1 5.1 8.7 5.1 13.3 0 8.1-5.5 15.4-11.2 19.5"/>
    <path d="M15.2 23.2h33.6M18.5 32.5h27"/>
    <path d="M26.5 42.4h11l-2.2 10.1h-6.6l-2.2-10.1Z"/>
    <path d="M24.4 52.5h15.2M27.9 57.5h8.2"/>
    <path d="M12 48.5c-2.8.8-4.5 2-4.5 3.5 0 3.4 10.9 6.2 24.5 6.2s24.5-2.8 24.5-6.2c0-1.5-1.7-2.7-4.5-3.5"/>
    <path d="M55 9v6.5M51.8 12.2h6.4"/>
    <path d="m55 9 .7 2.5 2.5.7-2.5.7-.7 2.6-.7-2.6-2.5-.7 2.5-.7.7-2.5Z" stroke-width="1.35"/>
    <circle cx="11.5" cy="15.5" r="1.6"/>
    <circle cx="50.8" cy="40.8" r="1.4"/>
  </g>
</svg>
