<svg xmlns="http://www.w3.org/2000/svg" viewBox="0 0 64 64" fill="none">
  <g stroke="#fff" stroke-width="2.7" stroke-linecap="round" stroke-linejoin="round">
    <path d="M32 47S18 34.8 18 21.5a14 14 0 1 1 28 0C46 34.8 32 47 32 47Z"/>
    <circle cx="32" cy="21.5" r="5.5"/>
    <path d="M42 36.5c2.1-3.1 5.3-5 8.6-5A9.4 9.4 0 0 1 60 41c0 8.7-9.4 16.5-9.4 16.5s-6.3-5.2-8.5-11.8"/>
    <circle cx="50.6" cy="41" r="3.4"/>
    <path d="M21.5 35.5 9 41l-5 13 13-6.5 11.5 5.5"/>
    <path d="M38 55.5h22"/>
  </g>
</svg>
