<svg xmlns="http://www.w3.org/2000/svg" viewBox="0 0 64 64" fill="none" role="img" aria-labelledby="title desc">
  <title id="title">Lüks gastronomi</title>
  <desc id="desc">Servis kubbesi, tabak, çatal, bıçak ve parıltılardan oluşan fine dining simgesi</desc>

  <g transform="translate(32 32) scale(1.18) translate(-32 -32)" stroke="#fff" stroke-linecap="round" stroke-linejoin="round">
    <!-- Fine-dining cloche -->
    <path d="M18.5 41.5c.7-10.2 6-16.1 13.5-16.1s12.8 5.9 13.5 16.1" stroke-width="2.45"/>
    <path d="M15.5 41.5h33" stroke-width="2.65"/>
    <path d="M12.5 46h39" stroke-width="2.65"/>
    <path d="M17.5 46c1.9 3.3 5.2 5 9.8 5h9.4c4.6 0 7.9-1.7 9.8-5" stroke-width="2.15"/>
    <path d="M28.7 25.8v-1.4a3.3 3.3 0 0 1 6.6 0v1.4" stroke-width="2.2"/>

    <!-- Aromatic steam -->
    <path d="M27.4 19.2c-2.2-2-.5-3.8.8-5.3 1.2-1.4 1.7-2.7.5-4.2" stroke-width="1.8"/>
    <path d="M34.8 18.8c2.1-1.8.6-3.6-.7-5-1.1-1.3-1.6-2.5-.5-3.8" stroke-width="1.8"/>

    <!-- Fork -->
    <path d="M9.5 19v8.4c0 2 1.5 3.5 3.5 3.5s3.5-1.5 3.5-3.5V19" stroke-width="2.15"/>
    <path d="M13 18.8v33.8M9.5 24h7" stroke-width="2.15"/>

    <!-- Knife -->
    <path d="M51.5 52.6V19.8c3.3 1.7 4.8 5.2 4.8 9.6v7.1h-4.8" stroke-width="2.15"/>

    <!-- Jewel-like highlights -->
    <path d="M48.2 10.8v6.4M45 14h6.4" stroke-width="1.7"/>
    <path d="m48.2 10.8.6 2.6 2.6.6-2.6.6-.6 2.6-.6-2.6-2.6-.6 2.6-.6.6-2.6Z" stroke-width="1.15"/>
    <circle cx="42.2" cy="20.7" r="1.05" fill="#fff" stroke="none"/>
    <circle cx="21.3" cy="14.2" r="1.05" fill="#fff" stroke="none"/>
  </g>
</svg>
