<svg xmlns="http://www.w3.org/2000/svg" viewBox="0 0 64 64" fill="none">
  <g stroke="#fff" stroke-width="2.6" stroke-linecap="round" stroke-linejoin="round">
    <path d="M8 56h48"/>
    <path d="M13 56V10.5a3 3 0 0 1 3-3h26a3 3 0 0 1 3 3V56"/>
    <path d="M45 25h8a3 3 0 0 1 3 3v28"/>
    <path d="M20 15h3v3h-3zM28 15h3v3h-3zM36 15h3v3h-3z"/>
    <path d="M20 24h3v3h-3zM28 24h3v3h-3zM36 24h3v3h-3z"/>
    <path d="M20 33h3v3h-3zM28 33h3v3h-3zM36 33h3v3h-3z"/>
    <path d="M20 42h3v3h-3zM28 42h3v3h-3zM36 42h3v3h-3z"/>
    <path d="M49 32h3v3h-3zM49 41h3v3h-3z"/>
    <path d="M26 56V49h7v7"/>
  </g>
</svg>
