<svg xmlns="http://www.w3.org/2000/svg" viewBox="0 0 72 64" fill="none">
  <g stroke="#fff" stroke-width="2.65" stroke-linecap="round" stroke-linejoin="round">
    <!-- Geniş tur otobüsü gövdesi -->
    <path d="M17 53V15.5C17 8.6 22.6 3 29.5 3h13C49.4 3 55 8.6 55 15.5V53a4 4 0 0 1-4 4H21a4 4 0 0 1-4-4Z"/>
    <!-- Yan aynalar -->
    <path d="M17 18h-5a3 3 0 0 0-3 3v11h8M55 18h5a3 3 0 0 1 3 3v11h-8"/>
    <!-- Tabela ve panoramik ön cam -->
    <path d="M28 9h16"/>
    <path d="M18 15h36"/>
    <path d="M18 15v24h36V15"/>
    <!-- Alt servis/far paneli -->
    <path d="M18 39h36v14H18"/>
    <path d="M24 45.5h10l3 3H24Z"/>
    <circle cx="47" cy="46.5" r="3.2"/>
    <path d="M45.2 46.5h3.6"/>
    <!-- Tampon ve tekerlekler -->
    <path d="M22 53h28"/>
    <path d="M22 57v2a3 3 0 0 0 3 3h1a3 3 0 0 0 3-3v-2M43 57v2a3 3 0 0 0 3 3h1a3 3 0 0 0 3-3v-2"/>
  </g>
</svg>
